<?xml version="1.0" encoding="UTF-8" standalone="no"?>
<!-- Generator: Adobe Illustrator 22.1.0, SVG Export Plug-In . SVG Version: 6.00 Build 0)  -->

<svg
   xmlns:dc="http://purl.org/dc/elements/1.1/"
   xmlns:cc="http://creativecommons.org/ns#"
   xmlns:rdf="http://www.w3.org/1999/02/22-rdf-syntax-ns#"
   xmlns:svg="http://www.w3.org/2000/svg"
   xmlns="http://www.w3.org/2000/svg"
   xmlns:xlink="http://www.w3.org/1999/xlink"
   xmlns:sodipodi="http://sodipodi.sourceforge.net/DTD/sodipodi-0.dtd"
   xmlns:inkscape="http://www.inkscape.org/namespaces/inkscape"
   version="1.1"
   x="0px"
   y="0px"
   viewBox="0 0 710.6 122.8"
   style="enable-background:new 0 0 710.6 122.8;"
   xml:space="preserve"
   id="svg4109"
   sodipodi:docname="quatrodev-logo.svg"
   inkscape:version="0.92.4 (5da689c313, 2019-01-14)"><metadata
   id="metadata4115"><rdf:RDF><cc:Work
       rdf:about=""><dc:format>image/svg+xml</dc:format><dc:type
         rdf:resource="http://purl.org/dc/dcmitype/StillImage" /></cc:Work></rdf:RDF></metadata><defs
   id="defs4113" /><sodipodi:namedview
   pagecolor="#ffffff"
   bordercolor="#666666"
   borderopacity="1"
   objecttolerance="10"
   gridtolerance="10"
   guidetolerance="10"
   inkscape:pageopacity="0"
   inkscape:pageshadow="2"
   inkscape:window-width="1920"
   inkscape:window-height="1027"
   id="namedview4111"
   showgrid="false"
   inkscape:zoom="1.7563235"
   inkscape:cx="291.87766"
   inkscape:cy="62.651796"
   inkscape:window-x="-8"
   inkscape:window-y="-8"
   inkscape:window-maximized="1"
   inkscape:current-layer="Layer_1-3_2_" />
<style
   type="text/css"
   id="style3915">
	.st0{display:none;}
	.st1{display:inline;}
	.st2{fill:#FFFFFF;stroke:#FFFFFF;stroke-miterlimit:10;}
	.st3{fill:none;stroke:#FFFFFF;stroke-miterlimit:10;}
	.st4{stroke:#000000;stroke-miterlimit:10;}
	.st5{fill:#126D94;}
	.st6{fill:#064C74;}
	.st7{fill:#097CAB;}
	.st8{fill:#098EBC;}
	.st9{fill:#0A89B9;}
	.st10{fill:#0973A0;}
	.st11{fill:#1B64B0;}
	.st12{fill:#079BC6;}
	.st13{fill:#075982;}
	.st14{fill:#0799C5;}
	.st15{fill:#03AFD4;}
	.st16{fill:#10B4D8;}
	.st17{fill:#12B4D8;}
	.st18{fill:#39C0E1;}
	.st19{fill:#50C7E4;}
	.st20{fill:#069FC9;}
	.st21{fill:#1CB8DA;}
	.st22{fill:#05A6CE;}
	.st23{fill:#097CAA;}
	.st24{fill:#07B1D6;}
	.st25{fill:#35BFDF;}
	.st26{fill:#0EB3D7;}
	.st27{fill:#1CA8D3;}
</style>
<g
   id="Old_1_"
   class="st0">
	
		<image
   sodipodi:absref="E:\Workspace\quatrodev.visualstudio.com\quatrodev\static\brand\B3F52D12.jpg"
   xlink:href="B3F52D12.jpg"
   transform="matrix(0.9973 0 0 0.9973 326.2899 -269.3531)"
   id="Old"
   height="257"
   width="437"
   style="display:inline;overflow:visible;enable-background:new    ;">
	</image>
	
		<image
   sodipodi:absref="E:\Workspace\quatrodev.visualstudio.com\quatrodev\static\brand\B3F52D16.jpg"
   xlink:href="B3F52D16.jpg"
   transform="matrix(0.6029 0 0 0.3563 318.4218 -120.6744)"
   id="Gradient"
   height="200"
   width="749"
   style="display:inline;overflow:visible;enable-background:new    ;">
	</image>
</g>
<g
   id="Black_and_white"
   class="st0">
	<g
   id="Black_background"
   class="st1">
		<path
   d="M581.8,0l-7.1,36l-30.5-19.1l-28.6,37.9l-2.1-48.3l2.1,48.3l28.6-37.9L574.7,36L581.8,0H0.5v122.8h710.1V0H581.8z     M658.9,22.8L620.4,60L658.9,22.8z M636.4,100.1l37.8,19.9L636.4,100.1z M635.8,93.8l45.4-6.5L635.8,93.8z"
   id="path3920" />
	</g>
	<g
   id="White_text"
   class="st1">
		<title
   id="title3923">Asset 2</title>
		<g
   id="Layer_2_4_">
			<g
   id="Layer_1-2_3_">
				<g
   id="Layer_1-3_1_">
					<g
   id="gerasis_debesis_1_">
						<path
   class="st2"
   d="M404.9,101.6c0,3.9,0.7,6.9,2.2,9c1.8,2.4,4.6,3.6,8.5,3.6v3.1c-4.8,0-8.5-1.3-11.2-4        c-2.4-2.4-3.6-6.9-3.6-13.5V80.5c0.1-3.1-0.5-6.2-1.8-9c-1.2-2.1-3.9-3.3-8.1-3.6v-2.7c3.6-0.6,6.1-1.8,7.6-3.6        c1.5-2.1,2.2-5.1,2.2-9V33.3c0-6.6,1.2-11.2,3.6-13.9c2.4-2.4,6.1-3.6,11.2-3.6v3.1c-3.9,0-6.7,1-8.5,3.1        c-1.5,2.1-2.2,5.2-2.2,9.4v22c0,4.8-1,8.1-3.1,9.9c-1.8,1.7-4.2,2.7-6.7,2.7v0.9c2.6-0.1,5.1,1.1,6.7,3.1        c2.1,2.4,3.1,5.5,3.1,9.4L404.9,101.6L404.9,101.6z"
   id="path3925" />
						<path
   class="st2"
   d="M696.1,31.6c0-3.9-0.7-6.9-2.2-9c-1.8-2.4-4.6-3.6-8.5-3.6v-3.1c4.8,0,8.5,1.3,11.2,4        c2.4,2.4,3.6,6.9,3.6,13.5v19.3c-0.1,3.1,0.5,6.2,1.8,9c1.2,2.1,3.9,3.3,8.1,3.6V68c-3.6,0.6-6.1,1.8-7.6,3.6        c-1.5,2.1-2.2,5.1-2.2,9v19.3c0,6.6-1.2,11.2-3.6,13.9c-2.4,2.4-6.1,3.6-11.2,3.6v-3.1c3.9,0,6.7-1,8.5-3.1        c1.5-2.1,2.2-5.2,2.2-9.4v-22c0-4.8,1-8.1,3.1-9.9c1.8-1.7,4.2-2.7,6.7-2.7v-0.9c-2.6,0.1-5.1-1.1-6.7-3.1        c-2.1-2.4-3.1-5.5-3.1-9.4C696.2,53.8,696.1,31.6,696.1,31.6z"
   id="path3927" />
					</g>
					<path
   class="st2"
   d="M26.8,93.2c-8,0-14.4-2.7-19.2-8S0.5,72.9,0.5,64.4c0-9.1,2.4-16.3,7.3-21.8s11.6-8.2,20.1-8.2       c7.7,0,13.9,2.6,18.6,7.9s7.1,12.1,7.1,20.6c0,9.4-2.4,16.8-7.3,22.2c-1.4,1.6-3.1,3.1-5,4.2l13.8,10.6h-6.6l-10.7-8.6       C34.3,92.6,30.6,93.3,26.8,93.2z M27.2,38.1C21,37.9,15,40.6,10.9,45.3c-4.3,4.8-6.4,11-6.4,18.8s2,14,6.1,18.7s9.4,7,16.2,7       c7,0,12.6-2.3,16.7-6.9s6.1-11,6.1-19.2c0-8-2-14.3-6-18.8S34.1,38.1,27.2,38.1z"
   id="path3930" />
					<path
   class="st2"
   d="M90.6,92.2v-7.3h-0.2c-2.8,5.6-7.2,8.4-13.1,8.4c-9.6,0-14.4-6-14.4-18.1V51.8h3.7v22.5       c0,5.5,0.9,9.5,2.7,12c1.8,2.5,4.7,3.7,8.5,3.7c3.6,0.1,6.9-1.5,9.2-4.2c2.3-2.8,3.5-6.5,3.5-11.1v-23h3.6v40.6h-3.5       C90.6,92.3,90.6,92.2,90.6,92.2z"
   id="path3932" />
					<path
   class="st2"
   d="M131.5,92.2v-8.1h-0.2c-1.2,2.7-3.2,5-5.6,6.6s-5.3,2.5-8.2,2.5c-3.9,0-6.9-1.1-9.1-3.2s-3.4-5.1-3.4-8.2       c0-7.1,4.7-11.4,14.1-12.8l12.5-1.9c0-8.7-3.3-13.1-9.8-13.1c-4.5,0-8.8,1.8-13,5.4V55c1.8-1.4,3.9-2.4,6.1-3.1       c2.4-0.8,4.8-1.2,7.3-1.3c4.2,0,7.4,1.3,9.7,3.9s3.4,6.4,3.4,11.3v26.4C135.3,92.2,131.5,92.2,131.5,92.2z M120.3,72       c-4.3,0.6-7.2,1.6-9,3s-2.6,3.6-2.6,6.6c-0.1,2.2,0.8,4.4,2.4,5.9c1.6,1.6,3.8,2.3,6.7,2.3c3.7,0.1,7.3-1.5,9.7-4.3       c2.7-3.1,4.1-7.1,3.9-11.2v-4L120.3,72z"
   id="path3934" />
					<path
   class="st2"
   d="M163.4,91.7c-1.7,0.8-3.5,1.3-5.4,1.3c-6,0-9-3.6-9-10.8V54.9h-7.3v-3.3h7.3V41.1l1.8-0.6l1.8-0.6v11.8       h10.7V55h-10.7v26.8c0,2.8,0.4,4.8,1.3,6.1s2.4,1.9,4.5,1.9c1.7-0.1,3.4-0.6,4.9-1.5L163.4,91.7L163.4,91.7z"
   id="path3936" />
					<path
   class="st2"
   d="M190.5,55.5c-1.2-0.9-2.8-1.4-4.3-1.3c-3.2,0-5.9,1.7-8,5s-3.3,8-3.3,14.1v19.1h-3.6V51.8h3.6v9h0.2       c0.7-2.8,2.3-5.3,4.4-7.2c1.9-1.7,4.4-2.6,7-2.6c1.4,0,2.7,0.2,4,0.7L190.5,55.5L190.5,55.5z"
   id="path3938" />
					<path
   class="st2"
   d="M212.8,93.2c-5.9,0-10.6-1.9-14-5.8s-5.2-9-5.2-15.2c0-6.7,1.8-12,5.4-15.8s8.3-5.7,14.2-5.7       s10.4,1.9,13.7,5.7s5,9,5,15.7c0,6.3-1.7,11.4-5.1,15.3C223.4,91.3,218.8,93.2,212.8,93.2z M213.1,54c-4.8,0-8.6,1.6-11.4,4.8       c-2.8,3.2-4.3,7.7-4.3,13.4c0,5.3,1.4,9.6,4.2,12.8s6.6,4.8,11.4,4.8s8.6-1.6,11.3-4.8s4-7.6,4-13.2c0-5.8-1.3-10.2-3.9-13.3       C221.4,55.5,217.3,53.8,213.1,54z"
   id="path3940" />
					<path
   class="st2"
   d="M242.8,92.2V35.4H257c9.4,0,16.6,2.3,21.5,7s7.4,11.6,7.4,20.6c0,8.7-2.6,15.7-7.9,21.1       s-12.5,8.1-21.8,8.1H242.8z M246.8,39v49.6h8.9c8.4,0,14.9-2.2,19.4-6.6s6.8-10.7,6.8-18.9c0-16.1-8.5-24.2-25.4-24.2L246.8,39       z"
   id="path3942" />
					<path
   class="st2"
   d="M297.6,72.1c0,5.6,1.3,9.9,3.9,13.1s6.1,4.7,10.6,4.7s9-1.7,13.3-5v3.9c-4.1,3-9,4.5-14.1,4.5       c-4.9,0.1-9.5-1.9-12.7-5.6c-3.2-3.8-4.8-9-4.8-15.9c-0.2-5.4,1.6-10.7,5-14.9c3.2-4,8-6.2,13.1-6.1c5,0,8.9,1.8,11.6,5.3       s4,8.4,4,14.5v1.6L297.6,72.1L297.6,72.1z M323.8,68.8c-0.2-4.7-1.3-8.3-3.4-10.9c-2.1-2.6-5.3-4-8.6-3.9       c-3.5-0.1-6.9,1.3-9.4,3.8s-4,6.2-4.6,10.9L323.8,68.8z"
   id="path3944" />
					<path
   class="st2"
   d="M351,92.2h-3.3L332,51.7h4.1L348.2,84c0.5,1.4,0.9,2.8,1.2,4.2h0.2c0.2-1.4,0.6-2.8,1.1-4.1l12.5-32.4h4       L351,92.2z"
   id="path3946" />
				</g>
			</g>
		</g>
	</g>
	<g
   id="White_lines"
   class="st1">
		<path
   class="st3"
   d="M438.4,70c-2.7,5.1-4.1,10.8-4.1,16.5c0,5.6,1.3,11.2,3.8,16.2l33.8-15.9L438.4,70L438.4,70z"
   id="path3952" />
		<path
   class="st3"
   d="M445.8,60.4c-3,2.7-5.5,6-7.4,9.6l33.5,16.8l-2.1-35.7C461,50.3,452.2,54.6,445.8,60.4z"
   id="path3954" />
		<path
   class="st3"
   d="M469.8,51.1l45.6,3.4c-10.7-10.6-21.4-21.3-32.1-31.9C475.7,30.3,471,40.4,469.8,51.1z"
   id="path3956" />
		<polygon
   class="st3"
   points="471.9,86.8 515.4,54.5 469.8,51.1   "
   id="polygon3958" />
		<path
   class="st3"
   d="M438.1,102.7c0.4,0.8,0.8,1.6,1.3,2.3c5.6,9.3,15.1,15.6,25.9,17.1c1.4,0.2,2.8,0.3,4.2,0.3h9.7l-7.3-35.6    L438.1,102.7z"
   id="path3960" />
		<polygon
   class="st3"
   points="479.2,122.4 516.9,97.6 471.9,86.8   "
   id="polygon3962" />
		<path
   class="st3"
   d="M471.9,86.8l45,10.8c-0.5-14.4-1-28.8-1.5-43.1L471.9,86.8z"
   id="path3964" />
		<polygon
   class="st3"
   points="515.4,54.5 555.3,70.9 574.8,36   "
   id="polygon3966" />
		<path
   class="st3"
   d="M574.7,36L574.7,36L574.7,36z"
   id="path3968" />
		<path
   class="st3"
   d="M503,10.6c-1.5,0.5-2.9,1-4.4,1.6c-1.2,0.5-2.3,1-3.5,1.6c-4.3,2.3-8.3,5.2-11.7,8.7c0,0,0,0-0.1,0.1    l32.1,31.9l-2-45.9C509.9,8.9,506.4,9.6,503,10.6z"
   id="path3970" />
		<polygon
   class="st3"
   points="516.9,97.6 479.2,122.4 558.5,122.3   "
   id="polygon3972" />
		<polygon
   class="st3"
   points="555.3,70.8 515.4,54.5 516.9,97.6 555.3,70.9   "
   id="polygon3974" />
		<path
   class="st3"
   d="M544.2,16.9c-7.9-5.5-17.4-8.4-27-8.4c-1.2,0-2.6,0-3.8,0.1l2,45.9L544.2,16.9z"
   id="path3976" />
		<polygon
   class="st3"
   points="515.4,54.5 574.8,36 544.2,16.9   "
   id="polygon3978" />
		<path
   class="st3"
   d="M609.8,33.5c-0.1-1-0.2-2.1-0.4-3.1c-0.9-5.3-2.9-10.3-6-14.7c-2.7-3.8-6.2-7.1-10.1-9.7    c-2-1.3-4.2-2.4-6.5-3.2c-1.7-0.7-3.4-1.2-5.2-1.5c0,0,0,0-0.1,0L574.8,36L609.8,33.5z"
   id="path3980" />
		<path
   class="st3"
   d="M581.5,1.3c-2.4-0.5-4.9-0.8-7.3-0.8c-3.8,0-7.5,0.6-11.1,1.9c-2.5,0.8-4.9,1.9-7.2,3.3    c-1.6,0.9-3.1,2-4.5,3.1c-2.8,2.3-5.2,5-7.2,8.1L574.8,36L581.5,1.3z"
   id="path3982" />
		<path
   class="st3"
   d="M622,31.6c-0.5,0-1.1-0.1-1.6-0.1c-3.6,0-7.2,0.7-10.6,2L620.4,60l20.5-19.8C635.9,35.1,629.2,32,622,31.6z"
   id="path3984" />
		<path
   class="st3"
   d="M645.9,47.2c-1.3-2.6-3-4.9-5-7l0,0L620.4,60l27.9,10.5c0.5-3.4,0.7-6.9,0.7-10.4c0-2.5-0.4-4.9-1-7.3    C647.5,50.9,646.8,49,645.9,47.2z"
   id="path3986" />
		<path
   class="st3"
   d="M671.6,88.7c-1.4-4.6-4.1-8.6-7.7-11.7c-4.3-3.9-9.8-6.2-15.6-6.5l-2,26.1L671.6,88.7L671.6,88.7z"
   id="path3988" />
		<path
   class="st3"
   d="M671.9,103c0.5-1.8,0.7-3.7,0.8-5.6v-0.9c0.1-2.6-0.3-5.3-1.1-7.8l-25.3,7.9l18.3,18.4    C668.1,111.8,670.7,107.6,671.9,103z"
   id="path3990" />
		<path
   class="st3"
   d="M646.3,96.6l1.3,25.7c6.3-0.4,12.3-3,17-7.3l0,0L646.3,96.6z"
   id="path3992" />
		<polygon
   class="st3"
   points="620.4,60 574.8,36 609.8,33.5   "
   id="polygon3994" />
		<polygon
   class="st3"
   points="620.4,60 555.3,70.9 574.8,36   "
   id="polygon3996" />
		<polygon
   class="st3"
   points="595,91.1 555.3,70.9 620.4,60   "
   id="polygon3998" />
		<polygon
   class="st3"
   points="558.5,122.3 555.3,70.9 595,91.1   "
   id="polygon4000" />
		<polygon
   class="st3"
   points="558.5,122.3 516.9,97.6 555.3,70.9   "
   id="polygon4002" />
		<polygon
   class="st3"
   points="619.1,122.3 558.5,122.3 595,91.1   "
   id="polygon4004" />
		<polygon
   class="st3"
   points="619.1,122.3 595,91.1 646.3,96.6   "
   id="polygon4006" />
		<polygon
   class="st3"
   points="646.3,96.6 595,91.1 620.4,60   "
   id="polygon4008" />
		<polygon
   class="st3"
   points="646.3,96.6 620.4,60 648.3,70.5   "
   id="polygon4010" />
		<polygon
   class="st3"
   points="647.6,122.3 619.1,122.3 646.3,96.6   "
   id="polygon4012" />
	</g>
</g>
<g
   id="Color">
	<g
   id="Black_text">
		<title
   id="title4016">Asset 2</title>
		<g
   id="Layer_2_1_">
			<g
   id="Layer_1-2_1_">
				<g
   id="Layer_1-3_2_">
					<g
   id="gerasis_debesis_2_">
						<path
   class="st4"
   d="M404.9,101.6c0,3.9,0.7,6.9,2.2,9c1.8,2.4,4.6,3.6,8.5,3.6v3.1c-4.8,0-8.5-1.3-11.2-4        c-2.4-2.4-3.6-6.9-3.6-13.5V80.5c0.1-3.1-0.5-6.2-1.8-9c-1.2-2.1-3.9-3.3-8.1-3.6v-2.7c3.6-0.6,6.1-1.8,7.6-3.6        c1.5-2.1,2.2-5.1,2.2-9V33.3c0-6.6,1.2-11.2,3.6-13.9c2.4-2.4,6.1-3.6,11.2-3.6v3.1c-3.9,0-6.7,1-8.5,3.1        c-1.5,2.1-2.2,5.2-2.2,9.4v22c0,4.8-1,8.1-3.1,9.9c-1.8,1.7-4.2,2.7-6.7,2.7v0.9c2.6-0.1,5.1,1.1,6.7,3.1        c2.1,2.4,3.1,5.5,3.1,9.4L404.9,101.6L404.9,101.6z"
   id="path4018"
   style="fill:#ffffff;stroke:#ffffff;stroke-opacity:1" />
						<path
   class="st4"
   d="M696.1,31.6c0-3.9-0.7-6.9-2.2-9c-1.8-2.4-4.6-3.6-8.5-3.6v-3.1c4.8,0,8.5,1.3,11.2,4        c2.4,2.4,3.6,6.9,3.6,13.5v19.3c-0.1,3.1,0.5,6.2,1.8,9c1.2,2.1,3.9,3.3,8.1,3.6V68c-3.6,0.6-6.1,1.8-7.6,3.6        c-1.5,2.1-2.2,5.1-2.2,9v19.3c0,6.6-1.2,11.2-3.6,13.9c-2.4,2.4-6.1,3.6-11.2,3.6v-3.1c3.9,0,6.7-1,8.5-3.1        c1.5-2.1,2.2-5.2,2.2-9.4v-22c0-4.8,1-8.1,3.1-9.9c1.8-1.7,4.2-2.7,6.7-2.7v-0.9c-2.6,0.1-5.1-1.1-6.7-3.1        c-2.1-2.4-3.1-5.5-3.1-9.4C696.2,53.8,696.1,31.6,696.1,31.6z"
   id="path4020"
   style="fill:#ffffff;stroke:#ffffff;stroke-opacity:1" />
					</g>
					<path
   class="st4"
   d="M26.8,93.2c-8,0-14.4-2.7-19.2-8S0.5,72.9,0.5,64.4c0-9.1,2.4-16.3,7.3-21.8s11.6-8.2,20.1-8.2       c7.7,0,13.9,2.6,18.6,7.9s7.1,12.1,7.1,20.6c0,9.4-2.4,16.8-7.3,22.2c-1.4,1.6-3.1,3.1-5,4.2l13.8,10.6h-6.6l-10.7-8.6       C34.3,92.6,30.6,93.3,26.8,93.2z M27.2,38.1C21,37.9,15,40.6,10.9,45.3c-4.3,4.8-6.4,11-6.4,18.8s2,14,6.1,18.7s9.4,7,16.2,7       c7,0,12.6-2.3,16.7-6.9s6.1-11,6.1-19.2c0-8-2-14.3-6-18.8S34.1,38.1,27.2,38.1z"
   id="path4023"
   style="fill:#ffffff;stroke:#ffffff;stroke-opacity:1" />
					<path
   class="st4"
   d="M90.6,92.2v-7.3h-0.2c-2.8,5.6-7.2,8.4-13.1,8.4c-9.6,0-14.4-6-14.4-18.1V51.8h3.7v22.5       c0,5.5,0.9,9.5,2.7,12c1.8,2.5,4.7,3.7,8.5,3.7c3.6,0.1,6.9-1.5,9.2-4.2c2.3-2.8,3.5-6.5,3.5-11.1v-23h3.6v40.6h-3.5       C90.6,92.3,90.6,92.2,90.6,92.2z"
   id="path4025"
   style="fill:#ffffff;stroke:#ffffff;stroke-opacity:1" />
					<path
   class="st4"
   d="M131.5,92.2v-8.1h-0.2c-1.2,2.7-3.2,5-5.6,6.6s-5.3,2.5-8.2,2.5c-3.9,0-6.9-1.1-9.1-3.2s-3.4-5.1-3.4-8.2       c0-7.1,4.7-11.4,14.1-12.8l12.5-1.9c0-8.7-3.3-13.1-9.8-13.1c-4.5,0-8.8,1.8-13,5.4V55c1.8-1.4,3.9-2.4,6.1-3.1       c2.4-0.8,4.8-1.2,7.3-1.3c4.2,0,7.4,1.3,9.7,3.9s3.4,6.4,3.4,11.3v26.4C135.3,92.2,131.5,92.2,131.5,92.2z M120.3,72       c-4.3,0.6-7.2,1.6-9,3s-2.6,3.6-2.6,6.6c-0.1,2.2,0.8,4.4,2.4,5.9c1.6,1.6,3.8,2.3,6.7,2.3c3.7,0.1,7.3-1.5,9.7-4.3       c2.7-3.1,4.1-7.1,3.9-11.2v-4L120.3,72z"
   id="path4027"
   style="fill:#ffffff;stroke:#ffffff;stroke-opacity:1" />
					<path
   class="st4"
   d="M163.4,91.7c-1.7,0.8-3.5,1.3-5.4,1.3c-6,0-9-3.6-9-10.8V54.9h-7.3v-3.3h7.3V41.1l1.8-0.6l1.8-0.6v11.8       h10.7V55h-10.7v26.8c0,2.8,0.4,4.8,1.3,6.1s2.4,1.9,4.5,1.9c1.7-0.1,3.4-0.6,4.9-1.5L163.4,91.7L163.4,91.7z"
   id="path4029"
   style="fill:#ffffff;stroke:#ffffff;stroke-opacity:1" />
					<path
   class="st4"
   d="M190.5,55.5c-1.2-0.9-2.8-1.4-4.3-1.3c-3.2,0-5.9,1.7-8,5s-3.3,8-3.3,14.1v19.1h-3.6V51.8h3.6v9h0.2       c0.7-2.8,2.3-5.3,4.4-7.2c1.9-1.7,4.4-2.6,7-2.6c1.4,0,2.7,0.2,4,0.7L190.5,55.5L190.5,55.5z"
   id="path4031"
   style="fill:#ffffff;stroke:#ffffff;stroke-opacity:1" />
					<path
   class="st4"
   d="M212.8,93.2c-5.9,0-10.6-1.9-14-5.8s-5.2-9-5.2-15.2c0-6.7,1.8-12,5.4-15.8s8.3-5.7,14.2-5.7       s10.4,1.9,13.7,5.7s5,9,5,15.7c0,6.3-1.7,11.4-5.1,15.3C223.4,91.3,218.8,93.2,212.8,93.2z M213.1,54c-4.8,0-8.6,1.6-11.4,4.8       c-2.8,3.2-4.3,7.7-4.3,13.4c0,5.3,1.4,9.6,4.2,12.8s6.6,4.8,11.4,4.8s8.6-1.6,11.3-4.8s4-7.6,4-13.2c0-5.8-1.3-10.2-3.9-13.3       C221.4,55.5,217.3,53.8,213.1,54z"
   id="path4033"
   style="fill:#ffffff;stroke:#ffffff;stroke-opacity:1" />
					<path
   class="st4"
   d="M242.8,92.2V35.4H257c9.4,0,16.6,2.3,21.5,7s7.4,11.6,7.4,20.6c0,8.7-2.6,15.7-7.9,21.1       s-12.5,8.1-21.8,8.1H242.8z M246.8,39v49.6h8.9c8.4,0,14.9-2.2,19.4-6.6s6.8-10.7,6.8-18.9c0-16.1-8.5-24.2-25.4-24.2L246.8,39       z"
   id="path4035"
   style="fill:#ffffff;stroke:#ffffff;stroke-opacity:1" />
					<path
   class="st4"
   d="M297.6,72.1c0,5.6,1.3,9.9,3.9,13.1s6.1,4.7,10.6,4.7s9-1.7,13.3-5v3.9c-4.1,3-9,4.5-14.1,4.5       c-4.9,0.1-9.5-1.9-12.7-5.6c-3.2-3.8-4.8-9-4.8-15.9c-0.2-5.4,1.6-10.7,5-14.9c3.2-4,8-6.2,13.1-6.1c5,0,8.9,1.8,11.6,5.3       s4,8.4,4,14.5v1.6L297.6,72.1L297.6,72.1z M323.8,68.8c-0.2-4.7-1.3-8.3-3.4-10.9c-2.1-2.6-5.3-4-8.6-3.9       c-3.5-0.1-6.9,1.3-9.4,3.8s-4,6.2-4.6,10.9L323.8,68.8z"
   id="path4037"
   style="fill:#ffffff;stroke:#ffffff;stroke-opacity:1" />
					<path
   class="st4"
   d="M351,92.2h-3.3L332,51.7h4.1L348.2,84c0.5,1.4,0.9,2.8,1.2,4.2h0.2c0.2-1.4,0.6-2.8,1.1-4.1l12.5-32.4h4       L351,92.2z"
   id="path4039"
   style="fill:#ffffff;stroke:#ffffff;stroke-opacity:1" />
				</g>
			</g>
		</g>
	</g>
	<g
   id="Colored_copy_2">
		<path
   class="st5"
   d="M438.4,70c-2.7,5.1-4.1,10.8-4.1,16.5c0,5.6,1.3,11.2,3.8,16.2l33.8-15.9L438.4,70L438.4,70z"
   id="path4045" />
		<path
   class="st6"
   d="M445.8,60.4c-3,2.7-5.5,6-7.4,9.6l33.5,16.8l-2.1-35.7C461,50.3,452.2,54.6,445.8,60.4z"
   id="path4047" />
		<path
   class="st7"
   d="M469.8,51.1l45.6,3.4c-10.7-10.6-21.4-21.3-32.1-31.9C475.7,30.3,471,40.4,469.8,51.1z"
   id="path4049" />
		<polygon
   class="st8"
   points="471.9,86.8 515.4,54.5 469.8,51.1   "
   id="polygon4051" />
		<path
   class="st6"
   d="M438.1,102.7c0.4,0.8,0.8,1.6,1.3,2.3c5.6,9.3,15.1,15.6,25.9,17.1c1.4,0.2,2.8,0.3,4.2,0.3h9.7l-7.3-35.6    L438.1,102.7z"
   id="path4053" />
		<polygon
   class="st9"
   points="479.2,122.4 516.9,97.6 471.9,86.8   "
   id="polygon4055" />
		<path
   class="st10"
   d="M471.9,86.8l45,10.8c-0.5-14.4-1-28.8-1.5-43.1L471.9,86.8z"
   id="path4057" />
		<polygon
   class="st9"
   points="515.4,54.5 555.3,70.9 574.8,36   "
   id="polygon4059" />
		<path
   class="st11"
   d="M574.7,36L574.7,36L574.7,36z"
   id="path4061" />
		<path
   class="st12"
   d="M503,10.6c-1.5,0.5-2.9,1-4.4,1.6c-1.2,0.5-2.3,1-3.5,1.6c-4.3,2.3-8.3,5.2-11.7,8.7c0,0,0,0-0.1,0.1    l32.1,31.9l-2-45.9C509.9,8.9,506.4,9.6,503,10.6z"
   id="path4063" />
		<polygon
   class="st13"
   points="516.9,97.6 479.2,122.4 558.5,122.3   "
   id="polygon4065" />
		<polygon
   class="st14"
   points="555.3,70.8 515.4,54.5 516.9,97.6 555.3,70.9   "
   id="polygon4067" />
		<path
   class="st9"
   d="M544.2,16.9c-7.9-5.5-17.4-8.4-27-8.4c-1.2,0-2.6,0-3.8,0.1l2,45.9L544.2,16.9z"
   id="path4069" />
		<polygon
   class="st15"
   points="515.4,54.5 574.8,36 544.2,16.9   "
   id="polygon4071" />
		<path
   class="st16"
   d="M609.8,33.5c-0.1-1-0.2-2.1-0.4-3.1c-0.9-5.3-2.9-10.3-6-14.7c-2.7-3.8-6.2-7.1-10.1-9.7    c-2-1.3-4.2-2.4-6.5-3.2c-1.7-0.7-3.4-1.2-5.2-1.5c0,0,0,0-0.1,0L574.8,36L609.8,33.5z"
   id="path4073" />
		<path
   class="st9"
   d="M581.5,1.3c-2.4-0.5-4.9-0.8-7.3-0.8c-3.8,0-7.5,0.6-11.1,1.9c-2.5,0.8-4.9,1.9-7.2,3.3    c-1.6,0.9-3.1,2-4.5,3.1c-2.8,2.3-5.2,5-7.2,8.1L574.8,36L581.5,1.3z"
   id="path4075" />
		<path
   class="st17"
   d="M622,31.6c-0.5,0-1.1-0.1-1.6-0.1c-3.6,0-7.2,0.7-10.6,2L620.4,60l20.5-19.8C635.9,35.1,629.2,32,622,31.6z"
   id="path4077" />
		<path
   class="st18"
   d="M645.9,47.2c-1.3-2.6-3-4.9-5-7l0,0L620.4,60l27.9,10.5c0.5-3.4,0.7-6.9,0.7-10.4c0-2.5-0.4-4.9-1-7.3    C647.5,50.9,646.8,49,645.9,47.2z"
   id="path4079" />
		<path
   class="st18"
   d="M671.6,88.7c-1.4-4.6-4.1-8.6-7.7-11.7c-4.3-3.9-9.8-6.2-15.6-6.5l-2,26.1L671.6,88.7L671.6,88.7z"
   id="path4081" />
		<path
   class="st19"
   d="M671.9,103c0.5-1.8,0.7-3.7,0.8-5.6v-0.9c0.1-2.6-0.3-5.3-1.1-7.8l-25.3,7.9l18.3,18.4    C668.1,111.8,670.7,107.6,671.9,103z"
   id="path4083" />
		<path
   class="st18"
   d="M646.3,96.6l1.3,25.7c6.3-0.4,12.3-3,17-7.3l0,0L646.3,96.6z"
   id="path4085" />
		<polygon
   class="st20"
   points="620.4,60 574.8,36 609.8,33.5   "
   id="polygon4087" />
		<polygon
   class="st21"
   points="620.4,60 555.3,70.9 574.8,36   "
   id="polygon4089" />
		<polygon
   class="st9"
   points="595,91.1 555.3,70.9 620.4,60   "
   id="polygon4091" />
		<polygon
   class="st22"
   points="558.5,122.3 555.3,70.9 595,91.1   "
   id="polygon4093" />
		<polygon
   class="st23"
   points="558.5,122.3 516.9,97.6 555.3,70.9   "
   id="polygon4095" />
		<polygon
   class="st9"
   points="619.1,122.3 558.5,122.3 595,91.1   "
   id="polygon4097" />
		<polygon
   class="st24"
   points="619.1,122.3 595,91.1 646.3,96.6   "
   id="polygon4099" />
		<polygon
   class="st25"
   points="646.3,96.6 595,91.1 620.4,60   "
   id="polygon4101" />
		<polygon
   class="st26"
   points="646.3,96.6 620.4,60 648.3,70.5   "
   id="polygon4103" />
		<polygon
   class="st27"
   points="647.6,122.3 619.1,122.3 646.3,96.6   "
   id="polygon4105" />
	</g>
</g>
</svg>